<svg width="91" height="62" viewBox="0 0 91 62" fill="none" xmlns="http://www.w3.org/2000/svg">
<path d="M62.9242 45.2291L62.9242 45.229C62.4346 44.4602 62.7701 43.6088 63.3916 43.1226C63.7014 42.8802 64.077 42.734 64.4461 42.7366C64.8131 42.7392 65.1777 42.8889 65.4713 43.2461L65.5228 43.2038L65.4713 43.2461C68.3691 46.7704 73.523 47.516 78.1121 46.264C82.7013 45.012 86.7572 41.7537 87.4485 37.2321C88.2433 32.0315 85.6123 28.4553 81.9006 26.9334C78.1934 25.4134 73.4089 25.9425 69.8872 28.9382M62.9242 45.2291L69.9301 28.9892M62.9242 45.2291C63.2548 45.7501 63.6275 46.2048 64.0234 46.628L64.033 46.6384M62.9242 45.2291L64.033 46.6384M69.8872 28.9382C69.8871 28.9383 69.887 28.9384 69.8869 28.9385L69.9301 28.9892M69.8872 28.9382C69.8872 28.9382 69.8872 28.9382 69.8872 28.9382L69.9301 28.9892M69.8872 28.9382C69.6995 29.0959 69.4754 29.1615 69.2453 29.165L69.2135 29.1655L69.1938 29.1905L68.9818 29.4608M69.9301 28.9892C69.7285 29.1586 69.4887 29.228 69.2463 29.2317L69.0328 29.5037M68.9818 29.4608C68.9823 29.4602 68.9828 29.4597 68.9833 29.4591L69.0328 29.5037M68.9818 29.4608L68.9804 29.4626L69.0328 29.5037M68.9818 29.4608C68.4245 30.0771 67.6019 29.9771 67.0297 29.5351C66.7443 29.3147 66.5278 29.0128 66.4434 28.6825C66.3596 28.354 66.4054 27.994 66.6497 27.6496L66.5953 27.611C65.5716 29.054 67.8563 30.8088 69.0328 29.5037M64.033 46.6384L64.0377 46.6517M64.033 46.6384L64.0377 46.6517M64.0377 46.6517C65.271 50.2012 63.1362 53.201 60.0388 55.2878C56.9399 57.3756 52.8507 58.5707 50.1059 58.5119C42.7772 58.3572 37.5551 52.6884 36.7337 45.6165C36.6955 45.295 36.5824 45.0253 36.4274 44.7989L36.4113 44.7754M64.0377 46.6517L36.4113 44.7754M36.4113 44.7754L36.4171 44.7476M36.4113 44.7754L36.4171 44.7476M36.4171 44.7476L36.4601 44.5413C36.5584 43.8517 36.1259 43.3493 35.6169 43.1957C35.3623 43.1188 35.092 43.1305 34.8617 43.2471C34.6326 43.3632 34.4363 43.5865 34.3343 43.9463L34.334 43.9473M36.4171 44.7476L34.334 43.9473M34.334 43.9473L34.3337 43.9482M34.334 43.9473L34.3337 43.9482M34.3337 43.9482L34.2678 44.1565L34.2593 44.1836M34.3337 43.9482L34.2593 44.1836M34.2593 44.1836L34.2337 44.1962M34.2593 44.1836L34.2337 44.1962M34.2337 44.1962C33.7784 44.4204 33.4441 44.8782 33.4619 45.607C33.4652 45.7147 33.4745 45.8205 33.485 45.9275C33.487 45.9475 33.489 45.9675 33.491 45.9875C33.4997 46.0747 33.5086 46.1632 33.5145 46.2525L33.5156 46.2681M34.2337 44.1962L33.5156 46.2681M33.5156 46.2681L33.5096 46.2825M33.5156 46.2681L33.5096 46.2825M33.5096 46.2825C30.7716 52.8912 24.8095 57.7704 17.1826 56.8497C12.3722 56.2688 8.8124 52.9562 7.6984 49.1638C7.14122 47.267 7.19575 45.2493 8.01325 43.3944C8.83088 41.5392 10.4095 39.8519 12.8918 38.6122L33.5096 46.2825ZM72.2531 24.2795L72.0977 24.3638L72.1588 24.1979C75.2222 15.879 71.2483 5.73054 62.8111 1.84442C58.4737 -0.151856 52.8549 -0.478296 47.9379 0.922847C43.0213 2.32388 38.8173 5.4484 37.2904 10.3439L37.2287 10.5417L37.1635 10.345C35.8121 6.26781 31.9458 3.59044 27.5641 2.46121C23.1823 1.33197 18.3035 1.7562 14.9452 3.86162L14.9098 3.80514L14.9452 3.86162C12.2728 5.53675 10.3833 8.60645 9.71022 11.7767C9.03705 14.9475 9.58354 18.2024 11.7592 20.2582L11.8968 20.3881L11.7081 20.3731C6.41893 19.9508 1.04829 23.0519 0.166364 29.1154C-0.590733 34.3283 3.07223 38.4564 7.55391 39.2694L7.66507 39.2896L7.59367 39.3771C2.81945 45.232 4.20219 54.3139 11.9592 57.9595C20.0918 61.7801 29.8697 57.9839 34.2709 50.6304L34.3442 50.5081L34.3911 50.6427C37.0038 58.141 44.81 62.9743 53.0343 61.7418L53.0343 61.7418C55.9634 61.3042 59.5029 59.6717 62.2938 57.3587C65.086 55.0445 67.1151 52.061 67.0518 48.9261L67.0496 48.8205L67.1458 48.8639C70.7124 50.4732 75.2169 50.1887 79.0504 49.3385L79.0648 49.4035L79.0504 49.3384C85.4156 47.9292 90.2721 43.6927 90.8789 36.9042C91.8173 26.4083 80.4144 19.8546 72.2531 24.2795Z" fill="#F4F4F4" stroke="black"/>
</svg>
